<?xml version="1.0" encoding="UTF-8" standalone="no"?>
<svg width="131px" height="131px" viewBox="0 0 131 131" version="1.1" xmlns="http://www.w3.org/2000/svg" xmlns:xlink="http://www.w3.org/1999/xlink" xmlns:sketch="http://www.bohemiancoding.com/sketch/ns">
    <!-- Generator: Sketch 3.3.1 (12002) - http://www.bohemiancoding.com/sketch -->
    <title>car-icon2</title>
    <desc>Created with Sketch.</desc>
    <defs></defs>
    <g id="Page-1" stroke="none" stroke-width="1" fill="none" fill-rule="evenodd" sketch:type="MSPage">
        <g id="Code-This-2" sketch:type="MSArtboardGroup" transform="translate(-216.000000, -931.000000)">
            <g id="car-icon2" sketch:type="MSLayerGroup" transform="translate(216.000000, 931.000000)">
                <circle id="background" fill="#D8D8D8" sketch:type="MSShapeGroup" cx="65.5" cy="65.5" r="65.5"></circle>
                <path d="M68.0264239,90.8392839 C97.3440545,87.3701398 120.170137,77.1755856 119.009906,68.0691097 C117.849675,58.9626338 93.142487,54.3926734 63.8248564,57.8618174 C34.5072258,61.3309615 11.6811433,71.5255157 12.8413741,80.6319916 C14.0016049,89.7384675 38.7087933,94.3084279 68.0264239,90.8392839 L68.0264239,90.8392839 Z" id="lower-shadow" fill="#8D8D8D" sketch:type="MSShapeGroup"></path>
                <ellipse id="front-right-tire" fill="#000000" sketch:type="MSShapeGroup" cx="23.0135135" cy="82.1405405" rx="5.66486486" ry="3.71756757"></ellipse>
                <rect id="front-tire-shadow" fill="#363535" sketch:type="MSShapeGroup" x="60.8972973" y="61.0743243" width="17.3486486" height="20.3581081"></rect>
                <rect id="back-tire-shadow" fill="#363535" sketch:type="MSShapeGroup" x="106.747297" y="57.0027027" width="9.02837838" height="13.6310811"></rect>
                <path d="M61.6899964,88.3042718 C63.1768501,90.2794319 65.8112239,90.4608108 68.0668919,90.4608108 C69.2011268,90.4608108 70.3093561,90.2944362 71.292569,89.7367331 C74.2502991,88.0590343 76.2986486,83.9826953 76.2986486,79.3966216 C76.2986486,76.3125911 75.9058821,72.9968529 74.391455,70.990342 C72.9052528,69.0212271 70.0584008,68.4868258 67.8066457,68.4868258 C63.260372,68.4868258 59.8351351,73.2860387 59.8351351,79.3966216 C59.8351351,82.4753927 60.1801131,86.2985187 61.6899964,88.3042718 Z" id="front-tire" fill="#000000" sketch:type="MSShapeGroup"></path>
                <path d="M106.038346,78.3724642 C106.752757,78.8151619 108.219536,79.2360693 109.048649,79.2360693 C109.926409,79.2360693 111.117799,79.0795951 111.864764,78.5862238 C113.863425,77.2661076 114.890541,74.2452387 114.890541,70.7222973 C114.890541,65.8827156 112.275036,61.9594595 109.048649,61.9594595 C105.822261,61.9594595 103.206757,65.8827156 103.206757,70.7222973 C103.206757,74.3182094 103.972719,77.0924605 106.038346,78.3724642 Z" id="back-tire" fill="#000000" sketch:type="MSShapeGroup"></path>
                <path d="M77.9901558,81.9946078 L107.16821,74.5721731 L107.301388,71.4119433 L107.479627,70.4877062 L107.741477,67.6999749 L108.254937,65.2034922 L108.963571,63.0749946 L109.737849,61.691967 L111.02666,60.3138981 L112.483597,59.8621768 L113.649147,60.1486054 L114.436648,61.0227677 L115.035244,62.253726 L115.292392,63.4242344 L115.415653,64.8677119 L115.415653,66.3529849 L115.478701,67.7941011 L115.126863,71.1847265 L116.218503,70.3710142 L116.78286,68.5891589 L117.344619,66.0724595 L117.887724,62.4190187 L117.808855,60.4692733 L117.029618,57.5983753 L116.129481,54.9768331 L115.883432,53.9730341 L115.240207,51.0331855 L114.56841,49.2355093 L113.796729,47.6661732 L112.7313,46.1386326 L106.93968,42.8160133 L101.013937,39.9710898 L95.6447576,38.2940773 L90.0708639,38.0323783 L61.3741057,38.9065859 L55.7159454,39.8596353 L52.3805749,40.96993 L50.0343631,42.1010043 L32.7255082,52.9405167 L20.1763626,59.3729104 L19.4023206,60.0657229 L18.1424146,60.9172069 L16.7333846,61.6919675 L15.785697,62.2537264 L15.2159075,63.0749939 L15.2159075,64.1850378 L14.9358665,65.5745552 L14.2003233,66.3173289 L12.4026471,69.7710017 L12.1927254,70.873504 L12.2345208,71.8081161 L12.3839927,72.6537063 L12.3580181,73.7401516 L12.0271966,75.1626133 L12.1346368,78.6717773 L11.6345083,80.1306034 L11.6345083,81.1332217 L11.9282571,82.4902747 L12.3011102,83.1913519 L13.0543726,83.0048073 L25.8614869,84.8350697 L48.1306635,86.761438 L55.6854843,86.444076 L63.4854105,85.4969489 L63.5484579,82.5183745 L63.7607409,81.7230805 L63.8816407,78.9756797 L64.2126984,77.020031 L64.6533215,74.7914132 L65.3251182,73.0357686 L66.0708244,71.2010197 L66.9870182,69.7207055 L68.1995582,68.0982396 L70.0106939,66.8748375 L71.6404799,66.4181574 L73.0445233,66.4812048 L74.1864597,66.8413067 L75.4200155,67.5341193 L76.2469512,69.0203367 L76.9371663,70.4007669 L77.5097874,72.387349 L77.7988135,74.4161987 L77.6727188,76.5423351 L77.6753163,80.8120816 L77.9901558,81.9946078 Z" id="prius-body" fill="#91C1F0" sketch:type="MSShapeGroup"></path>
                <path d="M70.4241466,87.2826024 C72.5750718,87.2826024 74.7054054,84.0247586 74.7054054,80.0162162 C74.7054054,76.0076738 73.4613195,72.7624681 71.3103943,72.7624681 C69.1594691,72.7624681 66.9162162,76.0076738 66.9162162,80.0162162 C66.9162162,84.0247586 68.2732214,87.2826024 70.4241466,87.2826024 Z" id="front-wheel" fill="#FEFEFE" sketch:type="MSShapeGroup"></path>
                <ellipse id="back-wheel" stroke="#979797" stroke-width="0.625" fill="#FEFEFE" sketch:type="MSShapeGroup" cx="111.35" cy="70.7222973" rx="2.47837838" ry="5.75337838"></ellipse>
                <path d="M56.7840383,62.0285436 L57.8985949,62.1661909 L62.7449548,60.9102477 L63.6811241,60.9102477 C63.6811241,60.9102477 63.7825807,60.9806278 63.833309,61.0158178 C64.0186635,61.1443976 64.3893726,61.4015571 64.3893726,61.4015571 L58.8574828,67.2765008 L58.4898704,67.496626 L58.2303858,67.6133775 L57.7204825,67.752241 L43.7383863,69.375153 L44.6697448,67.7447229 L45.8960776,66.2825654 L47.1765849,65.0858626 L48.1276231,64.3486477 L49.2004985,63.715691 L50.1625927,63.3236448 L51.4517237,62.8074396 L52.8344991,62.3647569 L54.423248,61.9629814 L55.9395801,61.598133 L57.165913,61.4015571 L56.8623149,61.8131725" id="right-light" fill="#FEFEFE" sketch:type="MSShapeGroup"></path>
                <path d="M20.3537189,59.2692199 L19.2191409,60.19563 L18.5095272,60.4735139 L17.6758757,60.6796225 L16.9247853,60.95329 L16.1825198,61.2977522 L15.6528344,61.7991982 L15.1144222,62.4073265 L14.8441865,63.1963636 L14.6119957,63.9320596 L14.4638367,64.6862877 L14.3766671,65.5373927 L14.4571691,66.4188944 L14.9596936,67.0074119 L15.6005718,67.4935616 L16.2751804,67.8140006 L16.744857,67.9185258 L16.744857,66.7961065 L16.9704783,65.8470459 L17.5873333,64.5272448 L18.2389974,63.3044187 L18.9363544,62.1656244 L19.4507435,61.3622715 L19.8680595,60.482829 L20.3628378,59.4922917" id="left-light" fill="#FEFEFE" sketch:type="MSShapeGroup"></path>
                <path d="M89.9122436,40.6769614 L90.5513491,42.7715202 L91.3301817,45.5449462 L91.9045904,47.8097834 L92.3264675,49.9890321 L92.6012042,51.5644441 L74.5609064,56.9771849 C74.5609064,56.9771849 73.729329,57.1756371 73.5880016,56.9771849 C73.4620054,56.8002609 73.7589357,55.8510562 73.7589357,55.8510562 C73.7589357,55.8510562 76.6352393,51.1269159 78.2813275,48.9406958 C79.7776017,46.9534483 83.0790279,43.4224159 83.0790279,43.4224159 C83.0790279,43.4224159 84.4485112,42.3639367 85.1167039,42.0141394 C85.8092406,41.651598 87.2682112,41.1936372 87.2682112,41.1936372 L89.9122436,40.6769614 Z" id="Path-149" fill="#FEFEFE" sketch:type="MSShapeGroup"></path>
                <path d="M94.291643,40.4274236 C93.5174106,40.3939002 91.9681329,40.4274236 91.9681329,40.4274236 L95.095372,51.0568708 L103.508083,49.0304061 C103.508083,49.0304061 103.366134,47.6743104 103.186784,47.0046809 C102.951329,46.1255754 102.012208,44.5210483 102.012208,44.5210483 L100.402234,41.7692732 C100.402234,41.7692732 99.2922713,41.2854713 98.7359503,41.1171854 C98.0362704,40.9055337 96.6342316,40.6294604 96.6342316,40.6294604 C96.6342316,40.6294604 95.0727768,40.4612458 94.291643,40.4274236 Z" id="Path-150" fill="#FEFEFE" sketch:type="MSShapeGroup"></path>
                <path d="M65.1456963,41.6894746 C60.7734169,41.5951625 51.1758419,42.3525391 50.7834801,42.4291984 C50.3911183,42.5058578 47.0232513,44.2243924 44.4772469,45.8131436 C41.9975298,47.3605304 35.7063156,51.5643309 35.7063156,51.8376123 C35.7063156,52.1108937 36.5312754,52.4414116 40.0631243,52.6061782 C47.7494643,52.9647586 68.9705193,53.5010121 69.3608822,53.4076534 C69.7512451,53.3142947 73.4341314,49.3370364 75.2514931,47.2332433 C76.4242721,45.8756246 78.5942055,43.4260993 78.3313042,43.0234179 C78.0684029,42.6207365 69.9560249,41.7932357 65.1456963,41.6894746 Z" id="windscreen" fill="#FEFEFE" sketch:type="MSShapeGroup"></path>
            </g>
        </g>
    </g>
</svg>