<?xml version="1.0" encoding="UTF-8" standalone="no"?>
<svg width="130px" height="48px" viewBox="0 0 130 48" version="1.1" xmlns="http://www.w3.org/2000/svg" xmlns:xlink="http://www.w3.org/1999/xlink" xmlns:sketch="http://www.bohemiancoding.com/sketch/ns">
    <!-- Generator: Sketch 3.2.2 (9983) - http://www.bohemiancoding.com/sketch -->
    <title>deliverylogo</title>
    <desc>Created with Sketch.</desc>
    <defs></defs>
    <g id="Page-1" stroke="none" stroke-width="1" fill="none" fill-rule="evenodd" sketch:type="MSPage">
        <g id="office-delivery" sketch:type="MSArtboardGroup" transform="translate(-146.000000, -905.000000)">
            <g id="deliverylogo" sketch:type="MSLayerGroup" transform="translate(146.000000, 905.000000)">
                <ellipse id="shadow" fill="#D8D8D8" sketch:type="MSShapeGroup" cx="65.3095238" cy="42.1538462" rx="64.6904762" ry="5.84615385"></ellipse>
                <ellipse id="Oval-446" fill="#262626" sketch:type="MSShapeGroup" cx="38.4004499" cy="38.7625418" rx="6.9703787" ry="6.98996656"></ellipse>
                <rect id="Rectangle-1075" fill="#323232" sketch:type="MSShapeGroup" x="20.7844019" y="27.1973244" width="26.3607049" height="12.7090301"></rect>
                <rect id="Rectangle-1079" fill="#3D3D3D" sketch:type="MSShapeGroup" x="99.3595801" y="27.9598662" width="22.0517435" height="12.4548495"></rect>
                <path d="M2.92784547,10.7688019 C3.35448078,6.90606546 5.46311325,2.71455868 5.46311325,2.71455868 C5.87865513,1.80646694 7.02672519,1.05947338 8.03204329,1.04603981 L85.6213045,0.00925333322 C86.3030424,0.000143611159 87.3863785,0.146760083 88.0351576,0.347029924 C88.0351576,0.347029924 93.2440833,1.73933242 96.8022692,4.40939588 C101.976573,8.29219452 113.053169,19.651345 113.053169,19.651345 C113.053169,19.651345 124.28071,23.5509647 127.208512,27.0935177 C129.453479,29.8098609 128.571478,38.4280336 128.571478,38.4280336 C128.571478,38.4280336 124.508066,39.5939383 123.148269,39.85246 C121.719187,40.1241544 120.20484,40.0186816 120.20484,40.0186816 C120.20484,40.0186816 119.504229,30.7218046 111.502217,30.7218046 C103.500205,30.7218046 102.128828,40.6858765 102.128828,40.6858765 L43.8489845,39.768195 C43.8489845,39.768195 43.0392514,30.7218046 34.6525427,30.7218046 C26.2658339,30.7218046 26.1062107,39.6146709 26.1062107,39.6146709 L9.05869025,39.8524601 L7.17274232,38.8134177 C6.95304443,38.6923776 6.5703687,38.5990068 6.3194086,38.604836 L0.748597481,38.7342304 C-0.14722072,38.7550378 -0.196021374,38.5158003 0.652723305,38.1949164 L2.17887147,37.6179272 C2.17887147,37.6179272 2.07542814,18.4865488 2.92784547,10.7688019 Z" id="truck-body" fill="#101010" sketch:type="MSShapeGroup"></path>
                <path d="M2.35033695,21.3511706 L4.57047666,21.3511706 C4.70601913,21.3511706 4.81589801,21.4603888 4.81589801,21.6041813 L4.81589801,23.6399658 C4.81589801,23.7796998 4.70715469,23.8929766 4.56398741,23.8929766 L2.28514435,23.8929766 L2.35033695,21.3511706 Z" id="backlights1" fill-opacity="0.479279891" fill="#EA8694" sketch:type="MSShapeGroup"></path>
                <path d="M2.24874231,25.9264214 L4.56036396,25.9264214 C4.70149152,25.9264214 4.81589801,26.0356396 4.81589801,26.1794322 L4.81589801,28.2152167 C4.81589801,28.3549507 4.70423579,28.4682274 4.55722559,28.4682274 L2.21721348,28.4682274 L2.24874231,25.9264214 Z" id="backlights2" fill-opacity="0.479279891" fill="#EA8694" sketch:type="MSShapeGroup"></path>
                <path d="M2.21628525,28.722408 L4.55713319,28.722408 C4.70004506,28.722408 4.81589801,28.8420788 4.81589801,28.9742446 L4.81589801,29.9956551 C4.81589801,30.1347406 4.70322737,30.2474916 4.55488952,30.2474916 L2.19374476,30.2474916 L2.21628525,28.722408 Z" id="backlights3" fill-opacity="0.479279891" fill="#EA8694" sketch:type="MSShapeGroup"></path>
                <path d="M90.9351607,18.6271691 C88.6159639,17.0055257 88.7724842,8.27172104 88.7724842,8.27172104 L96.0124079,8.98983309 C97.2718052,9.11474992 98.99128,9.97297922 99.8549985,10.9089485 L110.03291,21.938249 C110.361491,22.2943157 110.230663,22.5286511 109.748596,22.4615582 C109.748596,22.4615582 93.2543574,20.2488125 90.9351607,18.6271691 Z" id="Path-642" stroke="#979797" stroke-width="0.5" fill="#F3F3F3" sketch:type="MSShapeGroup"></path>
                <ellipse id="Oval-444" fill="#1A1A1A" sketch:type="MSShapeGroup" cx="111.652793" cy="39.7792642" rx="6.9703787" ry="6.98996656"></ellipse>
                <ellipse id="Oval-445" fill="#191919" sketch:type="MSShapeGroup" cx="35.1053618" cy="39.5250836" rx="6.9703787" ry="6.98996656"></ellipse>
                <ellipse id="Oval-447" fill="#D8D8D8" sketch:type="MSShapeGroup" cx="111.652793" cy="39.7792642" rx="3.92875891" ry="3.93979933"></ellipse>
                <ellipse id="Oval-448" stroke="#979797" stroke-width="0.5" fill="#D8D8D8" sketch:type="MSShapeGroup" cx="35.1053618" cy="39.5250836" rx="3.92875891" ry="3.93979933"></ellipse>
                <g id="logo-custom-font" transform="translate(12.166479, 7.371237)" sketch:type="MSShapeGroup">
                    <g id="Colored-Squares-2">
                        <path d="M14.5934922,0.0577078918 L21.4190797,6.9610824 L14.5934922,13.8644569 L7.76790482,6.9610824 L14.5934922,0.0577078918 L14.5934922,0.0577078918 Z" id="blue" fill="#91C1F0"></path>
                        <path d="M12.194562,0.0577078918 L19.0201494,6.9610824 L12.194562,13.8644569 L5.36897458,6.9610824 L12.194562,0.0577078918 L12.194562,0.0577078918 Z" id="green" fill="#78FC8A"></path>
                        <path d="M9.45292746,0.0577078918 L16.2785149,6.9610824 L9.45292746,13.8644569 L2.62734003,6.9610824 L9.45292746,0.0577078918 L9.45292746,0.0577078918 Z" id="yellow" fill="#FFE684"></path>
                        <path d="M6.88264507,0.0577078918 L13.7082325,6.9610824 L6.88264507,13.8644569 L0.0570576405,6.9610824 L6.88264507,0.0577078918 L6.88264507,0.0577078918 Z" id="salmon" fill="#EA8694"></path>
                    </g>
                    <path d="M27.4496794,11.4959622 L27.4496794,4.66197801 L28.9989952,4.66197801 C29.5338807,4.66197801 29.9834545,4.74550365 30.34773,4.91255743 C30.7120055,5.07961121 31.0048048,5.3200638 31.2261367,5.63392242 C31.4474687,5.94778104 31.6065486,6.32491195 31.7033813,6.76532646 C31.8002141,7.20574098 31.8486297,7.69930156 31.8486297,8.24602303 C31.8486297,8.84336685 31.7794645,9.34958284 31.641132,9.76468617 C31.5027996,10.1797895 31.3183591,10.5164231 31.087805,10.7745972 C30.8572509,11.0327712 30.5944231,11.21754 30.2993139,11.3289092 C30.0042046,11.4402784 29.6998778,11.4959622 29.3863242,11.4959622 L27.4496794,11.4959622 Z M25.2778706,2.65734266 L25.2778706,13.5005975 L29.5384891,13.5005975 C30.2947066,13.5005975 30.9517759,13.3613881 31.5097169,13.0829651 C32.0676578,12.8045422 32.5333701,12.4223491 32.9068678,11.9363745 C33.2803654,11.4503998 33.5593317,10.8733136 33.743775,10.2050985 C33.9282183,9.53688336 34.0204385,8.80793234 34.0204385,8.01822356 C34.0204385,7.11714559 33.9074687,6.33251081 33.6815257,5.66429568 C33.4555826,4.99608056 33.1420338,4.43924297 32.7408696,3.99376622 C32.3397055,3.54828947 31.8647712,3.21418692 31.3160524,2.99144855 C30.7673336,2.76871017 30.1748184,2.65734266 29.5384891,2.65734266 L25.2778706,2.65734266 Z M35.2377581,8.06378345 C35.2654246,7.55755987 35.3806999,7.1374006 35.5835875,6.80329304 C35.7864751,6.46918548 36.0446919,6.20089101 36.3582454,5.99840157 C36.671799,5.79591214 37.0245415,5.65164059 37.4164835,5.56558258 C37.8084255,5.47952457 38.2026671,5.43649621 38.5992201,5.43649621 C38.9588845,5.43649621 39.3231546,5.46433809 39.6920411,5.52002268 C40.0609277,5.57570728 40.3975316,5.68454371 40.7018631,5.84653526 C41.0061945,6.00852681 41.2551892,6.23379292 41.4488546,6.52234036 C41.6425201,6.8108878 41.7393514,7.19308087 41.7393514,7.66893103 L41.7393514,11.7541349 C41.7393514,12.1084914 41.7577954,12.4476561 41.7946841,12.7716392 C41.8315727,13.0956223 41.8961269,13.338606 41.9883485,13.5005975 L39.996371,13.5005975 C39.9594824,13.3791038 39.9295108,13.2550809 39.9064554,13.128525 C39.8834,13.0019691 39.8672614,12.8728841 39.8580393,12.7412659 C39.5444857,13.0956224 39.1756046,13.3436683 38.7513851,13.4854109 C38.3271655,13.6271535 37.8937303,13.6980237 37.4510664,13.6980237 C37.1098464,13.6980237 36.7916865,13.6524643 36.4965772,13.561344 C36.201468,13.4702238 35.9432512,13.3284833 35.7219193,13.1361184 C35.5005874,12.9437534 35.3276744,12.7007697 35.2031752,12.40716 C35.0786759,12.1135504 35.0164273,11.7642613 35.0164273,11.3592825 C35.0164273,10.9138057 35.087898,10.5467991 35.2308415,10.2582517 C35.3737851,9.96970425 35.5582256,9.73937598 35.7841686,9.56725996 C36.0101116,9.39514395 36.2683283,9.26605887 36.5588265,9.18000086 C36.8493247,9.09394285 37.142124,9.02560369 37.4372333,8.97498134 C37.7323425,8.92435898 38.0228363,8.8838617 38.3087234,8.85348829 C38.5946105,8.82311487 38.8482162,8.77755543 39.0695482,8.7168086 C39.2908801,8.65606177 39.4660986,8.56747398 39.5952089,8.45104255 C39.7243192,8.33461113 39.7842624,8.16502877 39.7750402,7.9422904 C39.7750402,7.70942755 39.7404576,7.52465872 39.6712914,7.38797835 C39.6021251,7.25129799 39.5099049,7.14499263 39.3946278,7.06905909 C39.2793508,6.99312555 39.1456314,6.94250396 38.9934657,6.91719278 C38.8413,6.8918816 38.677609,6.8792262 38.5023879,6.8792262 C38.115057,6.8792262 37.8107302,6.97034508 37.5893982,7.15258556 C37.3680663,7.33482605 37.2389579,7.63855564 37.2020693,8.06378345 L35.2377581,8.06378345 Z M39.7750402,9.65837975 C39.6920407,9.73937552 39.5882929,9.80265252 39.4637937,9.84821264 C39.3392945,9.89377277 39.2055751,9.93173897 39.0626316,9.96211238 C38.919688,9.9924858 38.7698301,10.0177966 38.6130533,10.0380455 C38.4562765,10.0582945 38.2995021,10.0836053 38.1427253,10.1139787 C37.9951707,10.1443521 37.8499238,10.1848494 37.7069802,10.2354717 C37.5640367,10.2860941 37.4395393,10.3544333 37.3334844,10.4404913 C37.2274295,10.5265493 37.1421258,10.6353857 37.0775707,10.7670038 C37.0130155,10.898622 36.9807384,11.0656733 36.9807384,11.2681627 C36.9807384,11.4605276 37.0130155,11.6225168 37.0775707,11.7541349 C37.1421258,11.885753 37.2297351,11.9895273 37.340401,12.0654608 C37.451067,12.1413944 37.5801754,12.1945471 37.72773,12.2249205 C37.8752846,12.2552939 38.027448,12.2704804 38.1842248,12.2704804 C38.5715557,12.2704804 38.8712716,12.1996101 39.0833813,12.0578675 C39.2954911,11.9161249 39.4522656,11.7465426 39.5537094,11.5491154 C39.6551532,11.3516882 39.7174018,11.1517329 39.7404573,10.9492434 C39.7635127,10.746754 39.7750402,10.5847649 39.7750402,10.4632712 L39.7750402,9.65837975 Z M44.7826503,10.9492434 L42.9151714,10.9492434 C42.9336157,11.4757159 43.0419745,11.9135928 43.2402511,12.262887 C43.4385276,12.6121813 43.6921333,12.8931312 44.0010758,13.1057451 C44.3100183,13.318359 44.6627608,13.4702238 45.0593139,13.561344 C45.4558669,13.6524643 45.8616361,13.6980237 46.2766335,13.6980237 C46.6824087,13.6980237 47.0812613,13.6549954 47.4732033,13.5689373 C47.8651453,13.4828793 48.2132767,13.3335456 48.5176081,13.1209317 C48.8219396,12.9083178 49.0686288,12.6273679 49.2576831,12.2780737 C49.4467375,11.9287794 49.5412633,11.4959647 49.5412633,10.9796167 C49.5412633,10.6151357 49.4767091,10.308875 49.3475988,10.0608255 C49.2184885,9.81277593 49.047881,9.60522738 48.8357712,9.4381736 C48.6236614,9.27111981 48.3815833,9.13697258 48.1095294,9.03572786 C47.8374756,8.93448315 47.5585093,8.84842643 47.2726222,8.77755513 C46.9959573,8.70668383 46.7239075,8.64087575 46.4564648,8.58012892 C46.189022,8.51938209 45.9515548,8.45104293 45.7440561,8.3751094 C45.5365574,8.29917586 45.3682555,8.20046374 45.2391452,8.07897008 C45.1100349,7.95747642 45.0454807,7.80054947 45.0454807,7.60818451 C45.0454807,7.44619296 45.0823688,7.31710789 45.1561461,7.22092541 C45.2299234,7.12474293 45.3198382,7.05134161 45.4258931,7.00071925 C45.5319479,6.95009689 45.6495288,6.91719285 45.7786391,6.90200615 C45.9077494,6.88681944 46.0276357,6.8792262 46.1383017,6.8792262 C46.4887439,6.8792262 46.7930708,6.95262752 47.0512914,7.09943235 C47.309512,7.24623719 47.4524534,7.52718706 47.4801199,7.9422904 L49.3475988,7.9422904 C49.3107101,7.45631576 49.1977403,7.05387405 49.0086859,6.7349532 C48.8196316,6.41603234 48.5821644,6.16039327 48.2962773,5.96802831 C48.0103902,5.77566335 47.6853138,5.63898504 47.3210383,5.55798926 C46.9567628,5.47699349 46.5809653,5.43649621 46.1936344,5.43649621 C45.8063035,5.43649621 45.4282004,5.47446241 45.0593139,5.55039595 C44.6904273,5.62632948 44.3584344,5.75794564 44.0633251,5.94524836 C43.7682159,6.13255109 43.5307487,6.38819016 43.3509165,6.71217325 C43.1710843,7.03615634 43.0811695,7.45125345 43.0811695,7.95747703 C43.0811695,8.30170906 43.1457237,8.59278326 43.274834,8.83070834 C43.4039443,9.06863342 43.5745518,9.26605766 43.7866616,9.42298696 C43.9987713,9.57991627 44.2408495,9.70647027 44.5129034,9.80265275 C44.7849572,9.89883523 45.0639235,9.98236087 45.3498106,10.0532322 C46.0506951,10.2152237 46.5971001,10.3772128 46.9890421,10.5392044 C47.3809841,10.7011959 47.5769521,10.9441796 47.5769521,11.2681627 C47.5769521,11.4605276 47.535453,11.6199857 47.4524535,11.7465416 C47.369454,11.8730975 47.2657062,11.9743407 47.141207,12.0502742 C47.0167078,12.1262077 46.8783774,12.1818915 46.7262117,12.2173271 C46.574046,12.2527628 46.4287991,12.2704804 46.2904666,12.2704804 C46.0968012,12.2704804 45.9100552,12.2451696 45.730223,12.1945472 C45.5503908,12.1439248 45.3913108,12.0654614 45.2529783,11.9591544 C45.1146459,11.8528475 45.0016761,11.7161691 44.9140655,11.5491154 C44.8264549,11.3820616 44.7826503,11.1821063 44.7826503,10.9492434 L44.7826503,10.9492434 Z M50.689417,2.65734266 L50.689417,13.5005975 L52.6537281,13.5005975 L52.6537281,9.38502039 C52.6537281,8.58518713 52.7736144,8.01063199 53.0133907,7.66133772 C53.253167,7.31204345 53.6404921,7.13739893 54.1753776,7.13739893 C54.645708,7.13739893 54.9730899,7.29685697 55.1575332,7.61577782 C55.3419765,7.93469868 55.4341967,8.41813494 55.4341967,9.06610113 L55.4341967,13.5005975 L57.3985079,13.5005975 L57.3985079,8.67124871 C57.3985079,8.18527407 57.3593143,7.74233508 57.2809259,7.34241846 C57.2025375,6.94250183 57.0665126,6.60333712 56.8728471,6.32491415 C56.6791817,6.04649118 56.4140484,5.82881831 56.0774395,5.671889 C55.7408305,5.51495969 55.3097008,5.43649621 54.7840374,5.43649621 C54.4151508,5.43649621 54.0370478,5.54027049 53.6497169,5.74782216 C53.262386,5.95537382 52.9442261,6.28694529 52.6952276,6.74254652 L52.6537281,6.74254652 L52.6537281,2.65734266 L50.689417,2.65734266 Z" id="dash-helvetica-neue" fill="#FFFFFF"></path>
                </g>
                <path d="M124.142916,30.5816902 C123.130521,29.8686103 121.016453,26.5707541 121.016453,26.5707541 C120.927812,26.4345879 120.998405,26.3193062 121.165428,26.3157752 C121.165428,26.3157752 125.098695,26.1235906 126.082923,27.4821752 C127.067152,28.8407598 127.761384,31.3999815 127.761384,31.3999815 C127.854592,31.7151389 127.667403,31.9035526 127.329747,31.8126561 C127.329747,31.8126561 125.15531,31.2947701 124.142916,30.5816902 Z" id="frontlight" fill="#F3F3F3" sketch:type="MSShapeGroup"></path>
                <path d="M5.36667769,2.69556617 C3.78033009,5.20436815 3.01462546,10.4679743 3.01462546,10.4679743 L89.5170247,15.850615 C89.5170247,15.850615 88.7107038,10.7965634 88.8985562,10.8082526 C92.5522059,11.0356022 101.672519,12.9207891 101.672519,12.9207891 C101.672519,12.9207891 99.0246782,10.1255224 99.2406168,10.1769155 C101.007507,10.5974332 103.956293,10.8082526 103.956293,10.8082526 C103.956293,10.8082526 100.617821,7.14510009 96.1029571,3.92561296 C92.604239,1.43072545 86.3962005,0.00924021909 86.3962005,0.00924021909 L8.21636445,1.0971505 C8.21636445,1.0971505 6.9530253,0.186764199 5.36667769,2.69556617 Z" id="Path-5684" opacity="0.58751166" fill="#D8D8D8" sketch:type="MSShapeGroup"></path>
            </g>
        </g>
    </g>
</svg>