<?xml version="1.0" encoding="UTF-8" standalone="no"?>
<svg width="131px" height="131px" viewBox="0 0 131 131" version="1.1" xmlns="http://www.w3.org/2000/svg" xmlns:xlink="http://www.w3.org/1999/xlink" xmlns:sketch="http://www.bohemiancoding.com/sketch/ns">
    <!-- Generator: Sketch 3.3.1 (12002) - http://www.bohemiancoding.com/sketch -->
    <title>delivery</title>
    <desc>Created with Sketch.</desc>
    <defs>
        <circle id="path-1" cx="65.5" cy="65.5" r="65.5"></circle>
    </defs>
    <g id="Page-1" stroke="none" stroke-width="1" fill="none" fill-rule="evenodd" sketch:type="MSPage">
        <g id="office-delivery" sketch:type="MSArtboardGroup" transform="translate(-956.000000, -2357.000000)">
            <g id="delivery" sketch:type="MSLayerGroup" transform="translate(956.000000, 2357.000000)">
                <mask id="mask-2" sketch:name="background 4 copy" fill="white">
                    <use xlink:href="#path-1"></use>
                </mask>
                <use id="background-4-copy" fill="#D8D8D8" sketch:type="MSShapeGroup" xlink:href="#path-1"></use>
                <g id="business-delivery-icon-copy" mask="url(#mask-2)">
                    <g transform="translate(6.000000, 9.000000)">
                        <g id="skyscrapericon" transform="translate(57.883041, 0.000000)">
                            <ellipse id="Oval-455" fill="#A2A2A2" sketch:type="MSShapeGroup" cx="42.5584795" cy="90.7941176" rx="42.5584795" ry="7.20588235"></ellipse>
                            <rect id="Rectangle-1020" fill="#484747" sketch:type="MSShapeGroup" x="0.961773549" y="0" width="71.1712426" height="91.754902" rx="1.741824"></rect>
                            <rect id="Rectangle-1155" fill="#FFFFFF" sketch:type="MSShapeGroup" x="4.80886774" y="4.32352941" width="63.4770542" height="85.0294118"></rect>
                            <rect id="Rectangle-1021" fill="#484747" sketch:type="MSShapeGroup" x="25.7838427" y="71.4318328" width="21.7467686" height="19.587821" rx="2.17728"></rect>
                            <g id="windows" transform="translate(9.089354, 8.615484)" fill="#818181" sketch:type="MSShapeGroup">
                                <rect id="Rectangle-1022" x="0" y="0" width="9.44556615" height="8.70569824" rx="0.870912"></rect>
                                <rect id="Rectangle-1022" x="0.219664329" y="14.3644021" width="9.44556615" height="8.70569824" rx="0.870912"></rect>
                                <rect id="Rectangle-1022" x="0.219664329" y="28.9464467" width="9.44556615" height="8.70569824" rx="0.870912"></rect>
                                <rect id="Rectangle-1022" x="30.3136774" y="0" width="9.44556615" height="8.70569824" rx="0.870912"></rect>
                                <rect id="Rectangle-1022" x="30.4235096" y="14.3644021" width="9.44556615" height="8.70569824" rx="0.870912"></rect>
                                <rect id="Rectangle-1022" x="30.4235096" y="28.9464467" width="9.44556615" height="8.70569824" rx="0.870912"></rect>
                                <rect id="Rectangle-1022" x="15.1568387" y="0" width="9.44556615" height="8.70569824" rx="0.870912"></rect>
                                <rect id="Rectangle-1022" x="15.2666709" y="14.3644021" width="9.44556615" height="8.70569824" rx="0.870912"></rect>
                                <rect id="Rectangle-1022" x="15.2666709" y="28.9464467" width="9.44556615" height="8.70569824" rx="0.870912"></rect>
                                <rect id="Rectangle-1022" x="45.4705161" y="0" width="9.44556615" height="8.70569824" rx="0.870912"></rect>
                                <rect id="Rectangle-1022" x="45.5803483" y="14.3644021" width="9.44556615" height="8.70569824" rx="0.870912"></rect>
                                <rect id="Rectangle-1022" x="45.5803483" y="28.9464467" width="9.44556615" height="8.70569824" rx="0.870912"></rect>
                                <rect id="Rectangle-1026" x="0.219664329" y="43.5284912" width="9.44556615" height="8.70569824" rx="0.870912"></rect>
                                <rect id="Rectangle-1026" x="0.219664329" y="58.1105358" width="9.44556615" height="8.70569824" rx="0.870912"></rect>
                                <rect id="Rectangle-1023" x="30.4235096" y="43.5284912" width="9.44556615" height="8.70569824" rx="0.870912"></rect>
                                <rect id="Rectangle-1024" x="15.2666709" y="43.5284912" width="9.44556615" height="8.70569824" rx="0.870912"></rect>
                                <rect id="Rectangle-1025" x="45.5803483" y="43.5284912" width="9.44556615" height="8.70569824" rx="0.870912"></rect>
                                <rect id="Rectangle-1025" x="45.4705161" y="58.1105358" width="9.44556615" height="8.70569824" rx="0.870912"></rect>
                            </g>
                        </g>
                        <g id="deliverylogo-2" transform="translate(0.000000, 71.730061)">
                            <ellipse id="shadow" fill="#A2A2A2" sketch:type="MSShapeGroup" cx="46.0736216" cy="30.0960359" rx="45.6369048" ry="4.17390278"></ellipse>
                            <ellipse id="Oval-446" fill="#262626" sketch:type="MSShapeGroup" cx="27.090196" cy="27.6747902" rx="4.9173623" ry="4.99053594"></ellipse>
                            <rect id="Rectangle-1075" fill="#323232" sketch:type="MSShapeGroup" x="14.6626803" y="19.4177216" width="18.5965702" height="9.07370171"></rect>
                            <rect id="Rectangle-1079" fill="#3D3D3D" sketch:type="MSShapeGroup" x="70.0947645" y="19.9621438" width="15.5567462" height="8.89222767"></rect>
                            <path d="M2.06549422,7.68846207 C2.36647076,4.93063416 3.8648831,1.91296387 3.8648831,1.91296387 C4.15204423,1.27849569 4.94788348,0.756543304 5.65280172,0.747010455 L60.4028838,0.00660648254 C60.8838264,0.0001025322 61.6400924,0.102357388 62.1057742,0.247764463 C62.1057742,0.247764463 65.7804919,1.24180865 68.2906696,3.14811929 C71.9409629,5.92027078 79.7551204,14.0302164 79.7551204,14.0302164 C79.7551204,14.0302164 87.6757639,16.8143774 89.7412275,19.3436081 C91.3249747,21.2829605 90.7027529,27.4359657 90.7027529,27.4359657 C90.7027529,27.4359657 87.8361557,28.2683716 86.8768662,28.452945 C85.8686974,28.6469231 84.800378,28.5716201 84.800378,28.5716201 C84.800378,28.5716201 84.3061212,21.9340491 78.660977,21.9340491 C73.0158329,21.9340491 72.0483736,29.0479686 72.0483736,29.0479686 L30.9339496,28.3927834 C30.9339496,28.3927834 30.3627107,21.9340491 24.4461763,21.9340491 C18.529642,21.9340491 18.4170332,28.2831738 18.4170332,28.2831738 L6.39059424,28.452945 L5.06012287,27.7111134 C4.90513357,27.6246959 4.63516902,27.5580333 4.4581253,27.562195 L0.528109761,27.6545771 C-0.103859152,27.6694326 -0.138286334,27.4986274 0.447857152,27.2743574 L1.53711884,26.8575846 C1.53711884,26.8575846 1.46414313,13.1986019 2.06549422,7.68846207 Z" id="truck-body" fill="#101010" sketch:type="MSShapeGroup"></path>
                            <path d="M1.65808183,15.2438189 L3.21130742,15.2438189 C3.31411131,15.2438189 3.39745032,15.321796 3.39745032,15.4112925 L3.39745032,16.8910856 C3.39745032,16.9835787 3.32073565,17.0585592 3.21973606,17.0585592 L1.6120907,17.0585592 L1.65808183,15.2438189 Z" id="backlights1" fill-opacity="0.479279891" fill="#EA8694" sketch:type="MSShapeGroup"></path>
                            <path d="M1.58641032,18.5103515 L3.21717984,18.5103515 C3.31674048,18.5103515 3.39745032,18.5883286 3.39745032,18.6778251 L3.39745032,20.1576182 C3.39745032,20.2501113 3.31867646,20.3250918 3.22826556,20.3250918 L1.56416781,20.3250918 L1.58641032,18.5103515 Z" id="backlights2" fill-opacity="0.479279891" fill="#EA8694" sketch:type="MSShapeGroup"></path>
                            <path d="M1.56351298,20.5065659 L3.22820512,20.5065659 C3.32167666,20.5065659 3.39745032,20.578008 3.39745032,20.6766978 L3.39745032,21.4252782 C3.39745032,21.5192394 3.31796505,21.5954101 3.22673765,21.5954101 L1.54761144,21.5954101 L1.56351298,20.5065659 Z" id="backlights3" fill-opacity="0.479279891" fill="#EA8694" sketch:type="MSShapeGroup"></path>
                            <path d="M64.1516265,13.2989988 C62.515513,12.141215 62.6259327,5.90565359 62.6259327,5.90565359 L67.7505014,6.42006643 C68.6295454,6.50830636 69.8224038,7.10652891 70.4266704,7.76922463 L77.6244314,15.6629677 C77.8562338,15.917184 77.7639397,16.0844894 77.4323451,16.0377921 C77.4323451,16.0377921 65.78774,14.4567826 64.1516265,13.2989988 Z" id="Path-642" stroke="#979797" stroke-width="0.5" fill="#F3F3F3" sketch:type="MSShapeGroup"></path>
                            <ellipse id="Oval-444" fill="#1A1A1A" sketch:type="MSShapeGroup" cx="78.7672034" cy="28.4006863" rx="4.9173623" ry="4.99053594"></ellipse>
                            <ellipse id="Oval-445" fill="#191919" sketch:type="MSShapeGroup" cx="24.7656247" cy="28.2192123" rx="4.9173623" ry="4.99053594"></ellipse>
                            <ellipse id="Oval-447" fill="#D8D8D8" sketch:type="MSShapeGroup" cx="78.7672034" cy="28.4006863" rx="2.77160421" ry="2.81284753"></ellipse>
                            <ellipse id="Oval-448" stroke="#979797" stroke-width="0.5" fill="#D8D8D8" sketch:type="MSShapeGroup" cx="24.7656247" cy="28.2192123" rx="2.77160421" ry="2.81284753"></ellipse>
                            <g id="logo-custom-font" transform="translate(8.583032, 5.262747)" sketch:type="MSShapeGroup">
                                <g id="Colored-Squares-2">
                                    <path d="M10.2952066,0.0412009565 L15.1104236,4.96991389 L10.2952066,9.89862682 L5.47998953,4.96991389 L10.2952066,0.0412009565 L10.2952066,0.0412009565 Z" id="blue" fill="#91C1F0"></path>
                                    <path d="M8.60284385,0.0412009565 L13.4180609,4.96991389 L8.60284385,9.89862682 L3.78762681,4.96991389 L8.60284385,0.0412009565 L8.60284385,0.0412009565 Z" id="green" fill="#78FC8A"></path>
                                    <path d="M6.66871502,0.0412009565 L11.4839321,4.96991389 L6.66871502,9.89862682 L1.85349798,4.96991389 L6.66871502,0.0412009565 L6.66871502,0.0412009565 Z" id="yellow" fill="#FFE684"></path>
                                    <path d="M4.85546925,0.0412009565 L9.67068629,4.96991389 L4.85546925,9.89862682 L0.0402522019,4.96991389 L4.85546925,0.0412009565 L4.85546925,0.0412009565 Z" id="salmon" fill="#EA8694"></path>
                                </g>
                                <path d="M19.3648042,8.20762329 L19.3648042,3.32845209 L20.4577932,3.32845209 C20.8351365,3.32845209 21.1522953,3.38808581 21.4092791,3.50735503 C21.666263,3.62662426 21.8728228,3.79829708 22.0289649,4.02237866 C22.1851069,4.24646024 22.2973324,4.51571551 22.3656445,4.83015256 C22.4339567,5.14458961 22.4681122,5.49697067 22.4681122,5.88730632 C22.4681122,6.31378416 22.4193186,6.67520063 22.3217298,6.97156658 C22.224141,7.26793254 22.0940246,7.50827449 21.9313766,7.69259966 C21.7687286,7.87692483 21.5833127,8.00884184 21.3751232,8.08835466 C21.1669338,8.16786748 20.9522417,8.20762329 20.7310404,8.20762329 L19.3648042,8.20762329 Z M17.8326678,1.89722854 L17.8326678,9.63884684 L20.8383876,9.63884684 C21.371873,9.63884684 21.8354128,9.53945731 22.2290209,9.34067527 C22.622629,9.14189322 22.951173,8.86902379 23.2146628,8.52205877 C23.4781525,8.17509375 23.6749536,7.76307896 23.805072,7.28600206 C23.9351904,6.80892516 24.0002486,6.28848544 24.0002486,5.72466728 C24.0002486,5.0813363 23.9205523,4.52114077 23.7611573,4.04406387 C23.6017623,3.56698696 23.3805643,3.16942884 23.0975568,2.85137757 C22.8145493,2.5333263 22.4794995,2.29479143 22.0923973,2.1357658 C21.7052951,1.97674016 21.287296,1.89722854 20.8383876,1.89722854 L17.8326678,1.89722854 Z M24.8590257,5.75719509 C24.8785435,5.39577319 24.9598662,5.09579752 25.1029965,4.85725907 C25.2461267,4.61872061 25.4282897,4.42716988 25.649491,4.28260112 C25.8706922,4.13803237 26.1195399,4.03502867 26.3960415,3.97358695 C26.6725431,3.91214523 26.950667,3.88142483 27.2304215,3.88142483 C27.4841524,3.88142483 27.7411323,3.90130273 28.0013691,3.94105914 C28.2616059,3.98081555 28.4990684,4.05852009 28.7137637,4.1741751 C28.9284591,4.2898301 29.1041163,4.45066044 29.2407406,4.65667092 C29.3773649,4.8626814 29.445676,5.13555083 29.445676,5.47528742 L29.445676,8.39194753 C29.445676,8.64494286 29.4586876,8.8870919 29.4847113,9.11840191 C29.510735,9.34971193 29.5562758,9.52319183 29.621335,9.63884684 L28.2160634,9.63884684 C28.1900397,9.55210558 28.1688958,9.46355855 28.152631,9.37320307 C28.1363662,9.2828476 28.124981,9.1906864 28.1184751,9.09671671 C27.8972738,9.34971203 27.6370409,9.52680611 27.3377686,9.62800424 C27.0384963,9.72920237 26.7327227,9.77980067 26.4204386,9.77980067 C26.1797196,9.77980067 25.9552687,9.74727319 25.7470793,9.68221725 C25.5388898,9.61716131 25.3567268,9.5159647 25.2005848,9.37862438 C25.0444427,9.24128406 24.9224585,9.06780415 24.8346286,8.85817945 C24.7467987,8.64855475 24.7028844,8.39917738 24.7028844,8.11003986 C24.7028844,7.7919886 24.7533045,7.52996165 24.8541463,7.32395117 C24.954988,7.11794069 25.0851045,6.95349619 25.2444995,6.83061275 C25.4038945,6.70772931 25.5860575,6.6155681 25.790994,6.55412638 C25.9959305,6.49268466 26.2024903,6.44389344 26.4106797,6.40775125 C26.6188692,6.37160906 26.8238026,6.34269574 27.0254861,6.32101042 C27.2271696,6.29932511 27.4060797,6.26679763 27.5622217,6.223427 C27.7183638,6.18005637 27.8419744,6.11680849 27.9330573,6.03368145 C28.0241402,5.95055442 28.066428,5.8294799 28.0599221,5.67045426 C28.0599221,5.50420019 28.0355253,5.37228318 27.9867309,5.27469927 C27.9379365,5.17711536 27.8728782,5.1012179 27.7915542,5.04700461 C27.7102303,4.99279133 27.6158958,4.95664968 27.5085482,4.93857859 C27.4012005,4.92050749 27.2857222,4.91147208 27.1621097,4.91147208 C26.8888611,4.91147208 26.6741689,4.97652704 26.5180269,5.10663893 C26.3618848,5.23675081 26.2708033,5.45360069 26.2447796,5.75719509 L24.8590257,5.75719509 Z M28.0599221,6.89566837 C28.0013688,6.95349587 27.9281783,6.99867293 27.8403484,7.0312009 C27.7525185,7.06372887 27.6581841,7.09083511 27.5573423,7.11252042 C27.4565006,7.13420573 27.350781,7.15227656 27.2401803,7.16673343 C27.1295797,7.18119031 27.0189807,7.19926113 26.9083801,7.22094645 C26.8042854,7.24263176 26.7018187,7.27154508 26.6009769,7.30768727 C26.5001352,7.34382946 26.4123066,7.39262068 26.3374885,7.4540624 C26.2626704,7.51550413 26.2024916,7.59320867 26.1569502,7.68717836 C26.1114087,7.78114805 26.0886383,7.90041549 26.0886383,8.04498425 C26.0886383,8.18232457 26.1114087,8.29797784 26.1569502,8.39194753 C26.2024916,8.48591723 26.2642969,8.5600076 26.3423679,8.61422089 C26.420439,8.66843417 26.5115205,8.7063829 26.6156152,8.72806822 C26.7197099,8.74975353 26.827056,8.76059602 26.9376566,8.76059602 C27.2109052,8.76059602 27.4223444,8.70999772 27.5719806,8.60879959 C27.7216167,8.50760146 27.8322157,8.38652694 27.9037808,8.2455724 C27.9753459,8.10461786 28.0192602,7.96185835 28.035525,7.81728959 C28.0517898,7.67272083 28.0599221,7.55706756 28.0599221,7.47032631 L28.0599221,6.89566837 Z M31.5926187,7.81728959 L30.2751766,7.81728959 C30.2881884,8.19316836 30.3646318,8.50579361 30.5045091,8.75517472 C30.6443864,9.00455583 30.8232965,9.20514197 31.0412448,9.35693917 C31.2591931,9.50873637 31.5080408,9.61716131 31.7877953,9.68221725 C32.0675498,9.74727319 32.353806,9.77980067 32.6465724,9.77980067 C32.9328328,9.77980067 33.2142096,9.74908027 33.4907112,9.68763855 C33.7672128,9.62619683 34.0128076,9.51957897 34.2275029,9.36778177 C34.4421983,9.21598458 34.616229,9.01539843 34.7496003,8.76601733 C34.8829717,8.51663622 34.9496564,8.20762513 34.9496564,7.8389748 C34.9496564,7.57875103 34.9041156,7.36009407 34.8130327,7.18299734 C34.7219499,7.00590061 34.6015922,6.85771985 34.451956,6.73845063 C34.3023199,6.6191814 34.131542,6.52340604 33.9396174,6.45112166 C33.7476928,6.37883728 33.5508917,6.31739648 33.3492082,6.26679741 C33.1540306,6.21619835 32.9621088,6.1692142 32.7734372,6.12584358 C32.5847655,6.08247295 32.4172406,6.03368173 32.2708574,5.97946844 C32.1244742,5.92525516 32.005743,5.85477894 31.9146601,5.76803769 C31.8235772,5.68129643 31.7780365,5.56925733 31.7780365,5.43191701 C31.7780365,5.316262 31.8040598,5.2241008 31.8561071,5.15543064 C31.9081545,5.08676048 31.9715862,5.03435509 32.0464043,4.9982129 C32.1212224,4.96207071 32.2041716,4.93857864 32.2952545,4.92773598 C32.3863374,4.91689333 32.470913,4.91147208 32.5489841,4.91147208 C32.796209,4.91147208 33.0109011,4.96387747 33.1930669,5.06868982 C33.3752326,5.17350217 33.4760729,5.37408831 33.4955906,5.67045426 L34.8130327,5.67045426 C34.7870091,5.32348924 34.7073127,5.03616315 34.5739414,4.80846735 C34.44057,4.58077156 34.2730451,4.39825624 34.0713616,4.26091592 C33.8696781,4.1235756 33.6403479,4.02599315 33.3833641,3.96816565 C33.1263803,3.91033814 32.861268,3.88142483 32.5880194,3.88142483 C32.3147708,3.88142483 32.0480321,3.90853106 31.7877953,3.96274435 C31.5275585,4.01695763 31.2933489,4.11092591 31.0851595,4.24465201 C30.8769701,4.37837812 30.7094452,4.56089344 30.5825798,4.79220345 C30.4557143,5.02351346 30.3922826,5.31987497 30.3922826,5.68129687 C30.3922826,5.92706376 30.4378233,6.13487823 30.5289062,6.30474652 C30.6199891,6.47461481 30.7403468,6.61556724 30.8899829,6.72760802 C31.0396191,6.83964881 31.2103969,6.93000293 31.4023215,6.99867309 C31.5942461,7.06734325 31.7910472,7.12697697 31.9927307,7.17757604 C32.4871806,7.29323104 32.8726506,7.40888431 33.1491522,7.52453932 C33.4256537,7.64019433 33.5639024,7.81367423 33.5639024,8.04498425 C33.5639024,8.18232457 33.5346262,8.29617076 33.476073,8.38652623 C33.4175197,8.47688171 33.3443292,8.549165 33.2564993,8.60337829 C33.1686694,8.65759157 33.071082,8.69734738 32.9637344,8.72264691 C32.8563867,8.74794645 32.75392,8.76059602 32.6563312,8.76059602 C32.5197069,8.76059602 32.387964,8.7425252 32.2610986,8.70638301 C32.1342332,8.67024082 32.0220077,8.61422127 31.9244189,8.53832267 C31.8268301,8.46242407 31.7471338,8.36484162 31.6853276,8.2455724 C31.6235214,8.12630317 31.5926187,7.98354366 31.5926187,7.81728959 L31.5926187,7.81728959 Z M35.7596393,1.89722854 L35.7596393,9.63884684 L37.1453932,9.63884684 L37.1453932,6.70050152 C37.1453932,6.12945492 37.2299689,5.71924722 37.3991228,5.46986612 C37.5682767,5.22048501 37.8415212,5.09579632 38.2188646,5.09579632 C38.5506665,5.09579632 38.7816231,5.20964251 38.9117415,5.43733831 C39.0418599,5.6650341 39.1069181,6.01018684 39.1069181,6.47280686 L39.1069181,9.63884684 L40.4926721,9.63884684 L40.4926721,6.19089919 C40.4926721,5.84393417 40.4650223,5.52769476 40.409722,5.24217146 C40.3544217,4.95664816 40.2584608,4.71449912 40.1218365,4.51571708 C39.9852122,4.31693504 39.7981698,4.16152595 39.5607037,4.04948517 C39.3232377,3.93744438 39.0190905,3.88142483 38.6482531,3.88142483 C38.3880163,3.88142483 38.1212776,3.9555152 37.848029,4.10369818 C37.5747804,4.25188116 37.3503295,4.48860895 37.1746697,4.81388865 L37.1453932,4.81388865 L37.1453932,1.89722854 L35.7596393,1.89722854 Z" id="dash-helvetica-neue" fill="#FFFFFF"></path>
                            </g>
                            <path d="M87.5785548,21.8340135 C86.8643452,21.3249051 85.3677252,18.9623295 85.3677252,18.9623295 C85.3080737,18.8695574 85.3602111,18.7908544 85.4780397,18.7883334 C85.4780397,18.7883334 88.2528241,18.6511218 88.9471634,19.6210929 C89.6415027,20.5910639 90.1312595,22.4182383 90.1312595,22.4182383 C90.1970151,22.6432472 90.0649593,22.7777665 89.8369294,22.7157089 C89.8369294,22.7157089 88.2927645,22.3431219 87.5785548,21.8340135 Z" id="frontlight" fill="#F3F3F3" sketch:type="MSShapeGroup"></path>
                            <path d="M3.62618956,2.36581771 C2.057417,6.11248076 2.12671452,7.4736841 2.12671452,7.4736841 L62.3640479,11.1326357 C62.3640479,11.1326357 61.9263572,7.46533815 62.0588805,7.47368372 C64.6364047,7.63600156 71.7264636,9.22488851 71.7264636,9.22488851 C71.7264636,9.22488851 69.8585028,7.22918817 70.01084,7.26588064 C71.2573203,7.56611217 73.337587,7.71662821 73.337587,7.71662821 C73.337587,7.71662821 70.9824103,5.10129462 67.7973291,2.80271907 C65.3291038,1.02147653 61.3288646,-0.054370232 60.7768846,0.00566770905 L5.9076051,0.747082195 C5.9076051,0.747082195 4.42086894,0.467903419 3.62618956,2.36581771 Z" id="Path-5684" opacity="0.59" fill="#D8D8D8" sketch:type="MSShapeGroup"></path>
                            <path d="M6.64550134,4.69268514 L58.7456348,4.69268514 C59.3321238,4.69268514 59.3442228,4.71399634 58.7646575,4.74065304 L58.175412,4.76775498 L32.920164,5.26660164 C32.3417434,5.27802672 31.4024884,5.27620246 30.8209715,5.26249622 L6.64550134,4.69268514 Z" id="Path-5714" fill="#3C3C3C" sketch:type="MSShapeGroup"></path>
                            <path d="M67.3174866,4.71206706 C66.4689472,4.45737641 62.7964048,4.31746054 62.7964048,4.31746054 C62.7964048,4.31746054 65.4781004,4.0702206 67.3174866,4.44118424 C68.3294093,4.64526674 71.0742741,6.69250711 71.0742741,6.69250711 C71.0742741,6.69250711 68.166026,4.96675771 67.3174866,4.71206706 Z" id="Path-5714" fill="#444444" sketch:type="MSShapeGroup"></path>
                        </g>
                    </g>
                </g>
            </g>
        </g>
    </g>
</svg>