<?xml version="1.0" encoding="UTF-8" standalone="no"?>
<svg width="122px" height="45px" viewBox="0 0 122 45" version="1.1" xmlns="http://www.w3.org/2000/svg" xmlns:xlink="http://www.w3.org/1999/xlink" xmlns:sketch="http://www.bohemiancoding.com/sketch/ns">
    <!-- Generator: Sketch 3.2.2 (9983) - http://www.bohemiancoding.com/sketch -->
    <title>deliverylogo</title>
    <desc>Created with Sketch.</desc>
    <defs></defs>
    <g id="Page-1" stroke="none" stroke-width="1" fill="none" fill-rule="evenodd" sketch:type="MSPage">
        <g id="office-delivery" sketch:type="MSArtboardGroup" transform="translate(-325.000000, -898.000000)">
            <g id="deliverylogo" sketch:type="MSLayerGroup" transform="translate(325.000000, 898.000000)">
                <ellipse id="shadow" fill="#D8D8D8" sketch:type="MSShapeGroup" cx="61.2904762" cy="39.5192308" rx="60.7095238" ry="5.48076923"></ellipse>
                <ellipse id="Oval-446" fill="#262626" sketch:type="MSShapeGroup" cx="36.0373453" cy="36.3398829" rx="6.54143232" ry="6.55309365"></ellipse>
                <rect id="Rectangle-1075" fill="#323232" sketch:type="MSShapeGroup" x="19.5053618" y="25.4974916" width="24.7385077" height="11.9147157"></rect>
                <rect id="Rectangle-1079" fill="#3D3D3D" sketch:type="MSShapeGroup" x="93.2451444" y="26.2123746" width="20.6947132" height="11.6764214"></rect>
                <path d="M2.74767036,10.0957518 C3.1480512,6.47443637 5.12692166,2.54489876 5.12692166,2.54489876 C5.51689173,1.69356275 6.58203381,0.993420182 7.51976723,0.980902558 L80.3523011,0.00867499989 C80.9920859,0.000134635461 82.0087552,0.137587577 82.6176095,0.325340554 C82.6176095,0.325340554 87.5059858,1.63062414 90.8452065,4.13380863 C95.7010915,7.77393236 106.096051,18.423136 106.096051,18.423136 C106.096051,18.423136 116.632666,22.0790294 119.380296,25.4001728 C121.487111,27.9467446 120.659387,36.0262815 120.659387,36.0262815 C120.659387,36.0262815 116.846031,37.1193172 115.569914,37.3616813 C114.228775,37.6163947 112.807619,37.517514 112.807619,37.517514 C112.807619,37.517514 112.150123,28.8016918 104.640542,28.8016918 C97.1309616,28.8016918 95.8439771,38.1430093 95.8439771,38.1430093 L41.1505854,37.2826828 C41.1505854,37.2826828 40.3906821,28.8016918 32.5200785,28.8016918 C24.6494749,28.8016918 24.4996746,37.1387539 24.4996746,37.1387539 L8.50123239,37.3616813 L6.73134279,36.3875791 C6.52516477,36.274104 6.16603832,36.1865689 5.93052192,36.1920337 L0.702529944,36.313341 C-0.138160983,36.3328479 -0.18395852,36.1085628 0.595772097,35.814073 L2.04478707,35.2668068 C2.04478707,35.2668068 1.94770949,17.3311395 2.74767036,10.0957518 Z" id="truck-body" fill="#101010" sketch:type="MSShapeGroup"></path>
                <path d="M2.20570083,20.0167224 L4.28921656,20.0167224 C4.41641795,20.0167224 4.51953506,20.1191145 4.51953506,20.25392 L4.51953506,22.162468 C4.51953506,22.2934686 4.41748363,22.3996656 4.28312665,22.3996656 L2.14452008,22.3996656 L2.20570083,20.0167224 Z" id="backlights1" fill-opacity="0.479279891" fill="#EA8694" sketch:type="MSShapeGroup"></path>
                <path d="M2.11035817,24.3060201 L4.27972618,24.3060201 C4.41216896,24.3060201 4.51953506,24.4084122 4.51953506,24.5432176 L4.51953506,26.4517656 C4.51953506,26.5827662 4.41474435,26.6889632 4.27678093,26.6889632 L2.08076957,26.6889632 L2.11035817,24.3060201 Z" id="backlights2" fill-opacity="0.479279891" fill="#EA8694" sketch:type="MSShapeGroup"></path>
                <path d="M2.07989847,26.9272575 L4.27669423,26.9272575 C4.41081151,26.9272575 4.51953506,27.0394489 4.51953506,27.1633543 L4.51953506,28.1209267 C4.51953506,28.2513193 4.41379799,28.3570234 4.29244067,28.3570234 L2.05874509,28.3570234 L2.07989847,26.9272575 Z" id="backlights3" fill-opacity="0.479279891" fill="#EA8694" sketch:type="MSShapeGroup"></path>
                <path d="M85.3391508,17.462971 C83.1626738,15.9426803 83.3095621,7.75473847 83.3095621,7.75473847 L90.1039521,8.42796852 C91.285848,8.54507805 92.8995089,9.34966802 93.6983542,10.2144503 L103.261654,20.5671085 C103.570014,20.900921 103.447238,21.1206104 103.006127,21.0592919 C103.006127,21.0592919 87.5156278,18.9832618 85.3391508,17.462971 Z" id="Path-642" stroke="#979797" stroke-width="0.5" fill="#F3F3F3" sketch:type="MSShapeGroup"></path>
                <ellipse id="Oval-444" fill="#1A1A1A" sketch:type="MSShapeGroup" cx="104.781852" cy="37.2930602" rx="6.54143232" ry="6.55309365"></ellipse>
                <ellipse id="Oval-445" fill="#191919" sketch:type="MSShapeGroup" cx="32.9450319" cy="37.0547659" rx="6.54143232" ry="6.55309365"></ellipse>
                <ellipse id="Oval-447" fill="#D8D8D8" sketch:type="MSShapeGroup" cx="104.781852" cy="37.2930602" rx="3.68698913" ry="3.69356187"></ellipse>
                <ellipse id="Oval-448" stroke="#979797" stroke-width="0.5" fill="#D8D8D8" sketch:type="MSShapeGroup" cx="32.9450319" cy="37.0547659" rx="3.68698913" ry="3.69356187"></ellipse>
                <g id="logo-custom-font" transform="translate(11.417773, 6.910535)" sketch:type="MSShapeGroup">
                    <g id="Colored-Squares-2">
                        <path d="M13.6954312,0.0541011486 L20.1009825,6.52601475 L13.6954312,12.9979283 L7.2898799,6.52601475 L13.6954312,0.0541011486 L13.6954312,0.0541011486 Z" id="blue" fill="#91C1F0"></path>
                        <path d="M11.4441274,0.0541011486 L17.8496787,6.52601475 L11.4441274,12.9979283 L5.03857615,6.52601475 L11.4441274,0.0541011486 L11.4441274,0.0541011486 Z" id="green" fill="#78FC8A"></path>
                        <path d="M8.87120885,0.0541011486 L15.2767601,6.52601475 L8.87120885,12.9979283 L2.46565757,6.52601475 L8.87120885,0.0541011486 L8.87120885,0.0541011486 Z" id="yellow" fill="#FFE684"></path>
                        <path d="M6.45909768,0.0541011486 L12.864649,6.52601475 L6.45909768,12.9979283 L0.0535464011,6.52601475 L6.45909768,0.0541011486 L6.45909768,0.0541011486 Z" id="salmon" fill="#EA8694"></path>
                    </g>
                    <path d="M25.7604683,10.7774645 L25.7604683,4.37060438 L27.2144417,4.37060438 C27.7164112,4.37060438 28.1383188,4.44890967 28.4801774,4.60552259 C28.8220359,4.76213551 29.0968168,4.98755981 29.3045283,5.28180227 C29.5122398,5.57604472 29.6615302,5.92960495 29.752404,6.34249356 C29.8432778,6.75538217 29.888714,7.21809521 29.888714,7.73064659 C29.888714,8.29065642 29.8238052,8.76523391 29.6939855,9.15439329 C29.5641658,9.54355266 29.3910754,9.85914669 29.1747093,10.1011848 C28.9583431,10.343223 28.7116894,10.5164438 28.4347407,10.6208524 C28.157792,10.725261 27.872193,10.7774645 27.577935,10.7774645 L25.7604683,10.7774645 Z M23.7223093,2.49125874 L23.7223093,12.6568102 L27.7207359,12.6568102 C28.4304169,12.6568102 29.0470513,12.5263014 29.5706574,12.2652798 C30.0942635,12.0042583 30.5313166,11.6459523 30.8818297,11.1903511 C31.2323429,10.7347498 31.494142,10.1937315 31.667235,9.56727983 C31.8403279,8.94082815 31.9268731,8.25743657 31.9268731,7.51708458 C31.9268731,6.67232399 31.8208552,5.93672888 31.6088164,5.3102772 C31.3967776,4.68382552 31.102524,4.16179029 30.7260469,3.74415584 C30.3495698,3.32652138 29.9038622,3.01330024 29.3889107,2.80448301 C28.8739592,2.59566579 28.3179065,2.49125874 27.7207359,2.49125874 L23.7223093,2.49125874 Z M33.0692807,7.55979698 C33.0952446,7.08521238 33.2034261,6.69131307 33.3938283,6.37808723 C33.5842305,6.06486139 33.826557,5.81333532 34.120815,5.62350148 C34.4150729,5.43366763 34.7461082,5.29841305 35.1139307,5.21773367 C35.4817531,5.13705428 35.8517337,5.0967152 36.2238835,5.0967152 C36.5614147,5.0967152 36.9032681,5.12281696 37.249454,5.17502127 C37.5956398,5.22722557 37.9115297,5.32925973 38.197133,5.48112681 C38.4827364,5.63299388 38.7164083,5.84418086 38.8981559,6.11469409 C39.0799035,6.38520731 39.1707759,6.74351331 39.1707759,7.18962284 L39.1707759,11.0195015 C39.1707759,11.3517107 39.1880849,11.6696776 39.2227035,11.9734117 C39.2573221,12.2771459 39.3179037,12.5049431 39.4044502,12.6568102 L37.5350559,12.6568102 C37.5004373,12.5429099 37.4723101,12.4266384 37.4506735,12.3079922 C37.4290369,12.1893461 37.4138915,12.0683288 37.4052368,11.9449368 C37.1109789,12.277146 36.7647982,12.509689 36.3666845,12.6425727 C35.9685707,12.7754564 35.5618085,12.8418972 35.1463854,12.8418972 C34.8261635,12.8418972 34.5275827,12.7991853 34.250634,12.71376 C33.9736853,12.6283348 33.7313589,12.4954531 33.5236473,12.315111 C33.3159358,12.1347688 33.1536636,11.9069716 33.0368259,11.6317125 C32.9199882,11.3564535 32.8615702,11.028995 32.8615702,10.6493273 C32.8615702,10.2316929 32.9286427,9.88762419 33.0627897,9.61711096 C33.1969367,9.34659774 33.3700271,9.13066498 33.5820659,8.96930622 C33.7941047,8.80794745 34.0364312,8.68693019 34.3090526,8.60625081 C34.5816739,8.52557142 34.8564548,8.46150346 35.1334035,8.414045 C35.4103522,8.36658654 35.6829695,8.32862034 35.9512635,8.30014527 C36.2195576,8.27167019 36.4575568,8.22895822 36.6652683,8.17200806 C36.8729798,8.11505791 37.0374156,8.03200685 37.1585807,7.92285239 C37.2797457,7.81369793 37.3360001,7.65471448 37.3273454,7.44589725 C37.3273454,7.22758833 37.294891,7.05436755 37.2299811,6.9262297 C37.1650713,6.79809186 37.0785261,6.69843059 36.970343,6.6272429 C36.86216,6.55605521 36.7366695,6.50859746 36.5938678,6.48486823 C36.4510661,6.461139 36.2974485,6.44927456 36.1330102,6.44927456 C35.769515,6.44927456 35.483916,6.53469851 35.2762045,6.70554897 C35.068493,6.87639942 34.9473297,7.16114592 34.9127111,7.55979698 L33.0692807,7.55979698 Z M37.3273454,9.05473102 C37.2494536,9.13066455 37.1520903,9.18998674 37.0352526,9.23269935 C36.9184148,9.27541197 36.7929243,9.31100528 36.6587773,9.33948036 C36.5246303,9.36795543 36.3839944,9.39168431 36.2368654,9.41066769 C36.0897364,9.42965108 35.9426097,9.45337995 35.7954807,9.48185503 C35.6570063,9.5103301 35.5206977,9.5482963 35.3865507,9.59575476 C35.2524036,9.64321322 35.1355677,9.70728118 35.0360392,9.78796057 C34.9365108,9.86863995 34.8564565,9.97067411 34.795874,10.0940661 C34.7352915,10.2174581 34.7050007,10.3740687 34.7050007,10.5639025 C34.7050007,10.7442447 34.7352915,10.8961095 34.795874,11.0195015 C34.8564565,11.1428935 34.9386744,11.2401818 35.0425302,11.3113695 C35.1463859,11.3825572 35.2675492,11.4323879 35.4060235,11.4608629 C35.5444979,11.489338 35.6872974,11.5035753 35.8344264,11.5035753 C36.1979215,11.5035753 36.4791933,11.4371345 36.6782502,11.3042508 C36.8773071,11.1713671 37.0244338,11.0123837 37.1196349,10.8272957 C37.2148361,10.6422077 37.273254,10.4547496 37.2948907,10.2649157 C37.3165273,10.0750819 37.3273454,9.92321707 37.3273454,9.80931677 L37.3273454,9.05473102 Z M42.0267949,10.2649157 L40.2742378,10.2649157 C40.2915471,10.7584837 40.3932376,11.1689932 40.5793125,11.4964566 C40.7653874,11.82392 41.0033866,12.0873105 41.2933173,12.286636 C41.583248,12.4859616 41.9142832,12.6283348 42.286433,12.71376 C42.6585828,12.7991853 43.0393815,12.8418972 43.4288406,12.8418972 C43.8096451,12.8418972 44.1839529,12.8015581 44.5517754,12.7208788 C44.9195979,12.6401994 45.2463059,12.500199 45.5319092,12.3008735 C45.8175125,12.101548 46.0490208,11.8381574 46.2264411,11.5106941 C46.4038613,11.1832307 46.4925701,10.7774669 46.4925701,10.2933906 C46.4925701,9.95168973 46.4319885,9.66457035 46.3108235,9.43202389 C46.1896584,9.19947744 46.0295499,9.00490067 45.830493,8.84828775 C45.6314361,8.69167483 45.4042551,8.56591179 45.148943,8.47099487 C44.8936309,8.37607795 44.6318318,8.29539978 44.3635378,8.22895793 C44.1038984,8.16251609 43.8485901,8.10082101 43.5976054,8.04387086 C43.3466206,7.98692071 43.1237668,7.92285275 42.9290373,7.85166506 C42.7343078,7.78047737 42.5763628,7.68793476 42.4551978,7.57403445 C42.3340327,7.46013415 42.2734511,7.31301513 42.2734511,7.13267298 C42.2734511,6.9808059 42.3080692,6.85978864 42.3773063,6.76961757 C42.4465435,6.67944649 42.5309251,6.61063276 42.6304535,6.5631743 C42.7299819,6.51571584 42.840327,6.4848683 42.9614921,6.47063076 C43.0826571,6.45639322 43.1951658,6.44927456 43.2990216,6.44927456 C43.6278981,6.44927456 43.9134972,6.5180883 44.1558273,6.65571783 C44.3981574,6.79334737 44.5323024,7.05673787 44.5582663,7.44589725 L46.3108235,7.44589725 C46.2762049,6.99029603 46.1701871,6.61300693 45.9927668,6.31401862 C45.8153466,6.01503032 45.5924928,5.77536869 45.3241987,5.59502654 C45.0559047,5.41468439 44.750833,5.28654847 44.4089744,5.21061493 C44.0671159,5.1346814 43.7144443,5.0967152 43.3509492,5.0967152 C42.987454,5.0967152 42.6326189,5.13230851 42.286433,5.2034962 C41.9402472,5.27468389 41.6286846,5.39807404 41.3517359,5.57367034 C41.0747872,5.74926665 40.8519334,5.98892828 40.6831678,6.29266242 C40.5144022,6.59639657 40.4300206,6.98555011 40.4300206,7.46013472 C40.4300206,7.78285225 40.4906023,8.0557343 40.6117673,8.27878907 C40.7329324,8.50184383 40.8930409,8.68692905 41.0920978,8.83405028 C41.2911546,8.98117151 41.5183357,9.09981588 41.7736478,9.18998695 C42.0289598,9.28015803 42.290759,9.35846331 42.559053,9.42490516 C43.2168061,9.57677223 43.7295862,9.72863703 44.0974087,9.8805041 C44.4652312,10.0323712 44.6491397,10.2601684 44.6491397,10.5639025 C44.6491397,10.7442447 44.6101943,10.8937366 44.5323025,11.0123827 C44.4544107,11.1310289 44.3570474,11.2259444 44.2402097,11.2971321 C44.1233719,11.3683198 43.9935542,11.4205233 43.8507525,11.4537442 C43.7079509,11.4869651 43.5716422,11.5035753 43.4418225,11.5035753 C43.260075,11.5035753 43.084821,11.4798465 42.9160554,11.432388 C42.7472898,11.3849295 42.5979994,11.31137 42.4681797,11.2117073 C42.33836,11.1120445 42.2323422,10.9839086 42.150123,10.8272957 C42.0679039,10.6706827 42.0267949,10.4832246 42.0267949,10.2649157 L42.0267949,10.2649157 Z M47.5700682,2.49125874 L47.5700682,12.6568102 L49.4134987,12.6568102 L49.4134987,8.79845661 C49.4134987,8.04861294 49.5260074,7.50996749 49.7510282,7.18250411 C49.976049,6.85504073 50.3395387,6.6913115 50.8415082,6.6913115 C51.2828952,6.6913115 51.5901305,6.84080341 51.7632234,7.13979171 C51.9363164,7.43878001 52.0228615,7.89200151 52.0228615,8.49946981 L52.0228615,12.6568102 L53.866292,12.6568102 L53.866292,8.12929566 C53.866292,7.67369444 53.8295103,7.25843914 53.7559458,6.8835173 C53.6823813,6.50859547 53.5547272,6.19062855 53.3729796,5.92960702 C53.191232,5.66858548 52.9424147,5.46451716 52.6265201,5.31739594 C52.3106255,5.17027471 51.9060269,5.0967152 51.412712,5.0967152 C51.0665262,5.0967152 50.711691,5.19400358 50.3481958,5.38858327 C49.9847007,5.58316296 49.6861199,5.89401121 49.4524444,6.32113736 L49.4134987,6.32113736 L49.4134987,2.49125874 L47.5700682,2.49125874 Z" id="dash-helvetica-neue" fill="#FFFFFF"></path>
                </g>
                <path d="M116.503352,28.6703346 C115.553258,28.0018222 113.562346,24.8995143 113.562346,24.8995143 C113.482993,24.7776948 113.55235,24.6743496 113.709094,24.6710393 C113.709094,24.6710393 117.400313,24.4908662 118.323974,25.7645392 C119.247635,27.0382123 119.899145,29.4374827 119.899145,29.4374827 C119.986618,29.7329427 119.810947,29.9095806 119.49407,29.824365 C119.49407,29.824365 117.453445,29.338847 116.503352,28.6703346 Z" id="frontlight" fill="#F3F3F3" sketch:type="MSShapeGroup"></path>
                <path d="M4.8238206,3.10656515 C2.73692546,8.02632409 2.82911005,9.8137259 2.82911005,9.8137259 L82.9611839,14.6183106 C82.9611839,14.6183106 82.3789359,9.8027668 82.5552282,9.8137254 C85.9840379,10.0268656 95.4157491,12.1132398 95.4157491,12.1132398 C95.4157491,12.1132398 92.9308519,9.49267727 93.133502,9.54085831 C94.7916605,9.93509359 97.5589822,10.1327368 97.5589822,10.1327368 C97.5589822,10.1327368 94.4259553,6.69853133 90.188929,3.68026215 C86.9055166,1.34130511 81.584108,-0.0713937794 80.8498241,0.0074422925 L7.85872518,0.98099676 C7.85872518,0.98099676 5.8809608,0.61440594 4.8238206,3.10656515 Z" id="Path-5684" opacity="0.59" fill="#D8D8D8" sketch:type="MSShapeGroup"></path>
                <path d="M8.84032832,6.16198452 L78.1794179,6.16198451 C78.9420954,6.16198451 78.9439934,6.18996834 78.1730135,6.22497137 L77.3891564,6.26055903 L43.7712001,6.91601766 C43.0136679,6.93078748 41.7884357,6.92854244 41.0214397,6.91069781 L8.84032832,6.16198452 Z" id="Path-5714" fill="#3C3C3C" sketch:type="MSShapeGroup"></path>
                <path d="M89.5506078,6.187435 C88.421819,5.85299964 83.5363365,5.66927552 83.5363365,5.66927552 C83.5363365,5.66927552 87.1037227,5.34462372 89.5506078,5.83173763 C90.8967408,6.09971921 94.5481592,8.78795913 94.5481592,8.78795913 C94.5481592,8.78795913 90.6793965,6.52187036 89.5506078,6.187435 Z" id="Path-5714" fill="#444444" sketch:type="MSShapeGroup"></path>
            </g>
        </g>
    </g>
</svg>