<?xml version="1.0" encoding="UTF-8" standalone="no"?>
<svg width="344px" height="83px" viewBox="0 0 344 83" version="1.1" xmlns="http://www.w3.org/2000/svg" xmlns:xlink="http://www.w3.org/1999/xlink" xmlns:sketch="http://www.bohemiancoding.com/sketch/ns">
    <!-- Generator: Sketch 3.3.1 (12002) - http://www.bohemiancoding.com/sketch -->
    <title>dash-logo-sm-black</title>
    <desc>Created with Sketch.</desc>
    <defs></defs>
    <g id="Page-1" stroke="none" stroke-width="1" fill="none" fill-rule="evenodd" sketch:type="MSPage">
        <g id="Landing-Page" sketch:type="MSArtboardGroup" transform="translate(-155.000000, -1937.000000)">
            <g id="dash-logo-sm-black" sketch:type="MSLayerGroup" transform="translate(155.000000, 1937.000000)">
                <g id="Colored-Squares-2" sketch:type="MSShapeGroup">
                    <path d="M87.3677932,0.342616448 L128.230974,41.3285124 L87.3677932,82.3144083 L46.5046125,41.3285124 L87.3677932,0.342616448 L87.3677932,0.342616448 Z" id="blue" fill="#91C1F0"></path>
                    <path d="M73.0059642,0.342616448 L113.869145,41.3285124 L73.0059642,82.3144083 L32.1427835,41.3285124 L73.0059642,0.342616448 L73.0059642,0.342616448 Z" id="green" fill="#78FC8A"></path>
                    <path d="M56.5924453,0.342616448 L97.4556261,41.3285124 L56.5924453,82.3144083 L15.7292646,41.3285124 L56.5924453,0.342616448 L56.5924453,0.342616448 Z" id="yellow" fill="#FFE684"></path>
                    <path d="M41.2047714,0.342616448 L82.0679521,41.3285124 L41.2047714,82.3144083 L0.341590625,41.3285124 L41.2047714,0.342616448 L41.2047714,0.342616448 Z" id="salmon" fill="#EA8694"></path>
                </g>
                <path d="M164.334751,68.2524624 L164.334751,27.6785426 L173.610139,27.6785426 C176.812372,27.6785426 179.503864,28.1744411 181.684696,29.166253 C183.865527,30.1580649 185.618447,31.5856515 186.94351,33.4490557 C188.268572,35.3124598 189.220946,37.5515167 189.80066,40.1662935 C190.380375,42.7810703 190.670228,45.7113796 190.670228,48.9573094 C190.670228,52.5037883 190.256152,55.5092338 189.427989,57.9737361 C188.599825,60.4382383 187.495623,62.4368596 186.11535,63.9696598 C184.735077,65.5024599 183.161589,66.5994475 181.39484,67.2606555 C179.62809,67.9218634 177.806157,68.2524624 175.928986,68.2524624 L164.334751,68.2524624 Z M151.332644,15.7768595 L151.332644,80.1541455 L176.839962,80.1541455 C181.367257,80.1541455 185.300976,79.327648 188.641237,77.6746282 C191.981498,76.0216084 194.769607,73.7524971 197.005649,70.8672261 C199.241692,67.9819552 200.911797,64.5557473 202.016015,60.5884998 C203.120234,56.6212522 203.672335,52.2934107 203.672335,47.6048455 C203.672335,42.2550722 202.996011,37.5966317 201.643344,33.6293842 C200.290676,29.6621367 198.413533,26.3561466 196.011858,23.7113149 C193.610183,21.0664832 190.766863,19.0828892 187.481813,17.7604734 C184.196764,16.4380575 180.649515,15.7768595 176.839962,15.7768595 L151.332644,15.7768595 Z M210.96014,47.8753383 C211.125773,44.8698477 211.815899,42.3753279 213.030539,40.3917042 C214.245179,38.4080804 215.791062,36.8151943 217.668233,35.6129981 C219.545404,34.4108018 221.65719,33.5542499 224.003654,33.0433165 C226.350119,32.5323831 228.71035,32.2769202 231.08442,32.2769202 C233.237645,32.2769202 235.418444,32.4422197 237.626881,32.7728237 C239.835318,33.1034276 241.850486,33.7495984 243.672446,34.7113554 C245.494407,35.6731124 246.985079,37.0105356 248.144509,38.7236652 C249.303938,40.4367949 249.883644,42.7059062 249.883644,45.5310673 L249.883644,69.7852549 C249.883644,71.8890983 249.994064,73.9027468 250.214908,75.8262608 C250.435751,77.7497747 250.822222,79.1923886 251.374331,80.1541455 L239.448832,80.1541455 C239.227988,79.4328278 239.048556,78.6964937 238.910528,77.945121 C238.772501,77.1937484 238.675883,76.4273598 238.620672,75.6459322 C236.743501,77.7497756 234.535097,79.2224439 231.995395,80.0639813 C229.455693,80.9055186 226.860819,81.326281 224.210694,81.326281 C222.16789,81.326281 220.263142,81.0557909 218.496393,80.5148026 C216.729643,79.9738143 215.183761,79.1322896 213.858699,77.9902031 C212.533636,76.8481167 211.498447,75.4055029 210.7531,73.6623184 C210.007752,71.9191338 209.635084,69.8453765 209.635084,67.440984 C209.635084,64.7961523 210.062963,62.6172043 210.918732,60.9040747 C211.774501,59.1909451 212.878703,57.8234674 214.23137,56.8016006 C215.584038,55.7797338 217.129921,55.0133452 218.869065,54.5024118 C220.608209,53.9914784 222.361129,53.5857433 224.127878,53.2851942 C225.894628,52.9846452 227.633746,52.7442095 229.345284,52.5638801 C231.056823,52.3835507 232.5751,52.1130606 233.900162,51.7524017 C235.225224,51.3917428 236.274216,50.8657899 237.047169,50.174527 C237.820122,49.4832642 238.178988,48.47644 238.123777,47.1540241 C238.123777,45.7714985 237.916739,44.6745109 237.502657,43.8630284 C237.088575,43.051546 236.536474,42.4204024 235.846338,41.9695788 C235.156201,41.5187552 234.355655,41.2182107 233.444675,41.0679362 C232.533694,40.9176616 231.553715,40.8425255 230.504708,40.8425255 C228.185849,40.8425255 226.363916,41.3835057 225.038854,42.4654823 C223.713792,43.5474589 222.940851,45.3507262 222.720007,47.8753383 L210.96014,47.8753383 Z M238.123777,57.3425862 C237.626878,57.8234647 237.005765,58.1991454 236.260417,58.4696395 C235.51507,58.7401337 234.714524,58.9655421 233.858754,59.1458715 C233.002985,59.326201 232.105821,59.4764732 231.167236,59.5966929 C230.22865,59.7169125 229.290078,59.8671847 228.351493,60.0475142 C227.468118,60.2278436 226.598559,60.4682793 225.74279,60.7688283 C224.88702,61.0693774 224.141684,61.4751125 223.506759,61.9860459 C222.871833,62.4969793 222.36114,63.1431501 221.974663,63.9245776 C221.588187,64.7060052 221.394952,65.6978022 221.394952,66.8999984 C221.394952,68.0420848 221.588187,69.0038274 221.974663,69.7852549 C222.36114,70.5666825 222.885636,71.1827988 223.548167,71.6336224 C224.210698,72.084446 224.983639,72.4000177 225.867014,72.5803472 C226.750388,72.7606766 227.661355,72.85084 228.599941,72.85084 C230.918799,72.85084 232.713127,72.4300776 233.982978,71.5885402 C235.25283,70.7470029 236.191401,69.7401787 236.798721,68.5680373 C237.406041,67.395896 237.778709,66.208745 237.916737,65.0065488 C238.054764,63.8043526 238.123777,62.84261 238.123777,62.1212923 L238.123777,57.3425862 Z M268.103156,65.0065488 L256.923001,65.0065488 C257.033423,68.132259 257.682141,70.7319694 258.869176,72.8057578 C260.056211,74.8795463 261.574489,76.5475686 263.424054,77.8098746 C265.27362,79.0721806 267.385406,79.9738143 269.759476,80.5148026 C272.133545,81.0557909 274.562789,81.326281 277.047281,81.326281 C279.476561,81.326281 281.864398,81.0708181 284.210862,80.5598847 C286.557326,80.0489513 288.641507,79.1623449 290.463467,77.9000389 C292.285428,76.6377328 293.762298,74.9697106 294.894121,72.8959221 C296.025945,70.8221336 296.591849,68.2524777 296.591849,65.1868774 C296.591849,63.0229241 296.205378,61.2046296 295.432425,59.7319392 C294.659472,58.2592489 293.638086,57.0270162 292.368234,56.0352043 C291.098383,55.0433925 289.649118,54.2469494 288.020396,53.6458513 C286.391674,53.0447532 284.721569,52.5338274 283.01003,52.1130588 C281.353703,51.6922901 279.725005,51.3015822 278.123888,50.9409233 C276.522772,50.5802644 275.101112,50.1745293 273.858866,49.7237057 C272.61662,49.2728821 271.609036,48.6868203 270.836083,47.9655025 C270.06313,47.2441848 269.67666,46.3124967 269.67666,45.1704103 C269.67666,44.2086533 269.8975,43.4422647 270.339188,42.8712215 C270.780875,42.3001783 271.319173,41.8643887 271.954099,41.5638396 C272.589024,41.2632906 273.292953,41.0679366 274.065906,40.9777719 C274.838859,40.8876072 275.55659,40.8425255 276.219121,40.8425255 C278.317136,40.8425255 280.139069,41.2783151 281.684975,42.1499074 C283.230881,43.0214996 284.086637,44.6895219 284.25227,47.1540241 L295.432425,47.1540241 C295.211582,44.2687532 294.535258,41.879424 293.403434,39.985965 C292.27161,38.0925059 290.84995,36.5747559 289.138412,35.4326695 C287.426873,34.2905831 285.480718,33.4791128 283.299886,32.9982343 C281.119055,32.5173558 278.869244,32.2769202 276.550385,32.2769202 C274.231526,32.2769202 271.967913,32.5023286 269.759476,32.9531522 C267.551039,33.4039758 265.563476,34.1853916 263.796726,35.2974231 C262.029977,36.4094546 260.608317,37.9272046 259.531704,39.8507186 C258.455091,41.7742325 257.916793,44.2386978 257.916793,47.2441884 C257.916793,49.287922 258.303263,51.0160531 259.076216,52.4286337 C259.849169,53.8412143 260.870556,55.013338 262.140407,55.9450401 C263.410258,56.8767421 264.859523,57.6281035 266.488245,58.1991467 C268.116967,58.7701899 269.787073,59.2660884 271.498611,59.6868571 C275.694641,60.6486141 278.965839,61.6103567 281.312303,62.5721136 C283.658767,63.5338706 284.831982,64.9764844 284.831982,66.8999984 C284.831982,68.0420848 284.583536,68.9888002 284.086638,69.7401728 C283.58974,70.4915454 282.968626,71.0926345 282.223279,71.5434581 C281.477931,71.9942817 280.64978,72.3248807 279.7388,72.535265 C278.827819,72.7456494 277.958261,72.85084 277.130097,72.85084 C275.970667,72.85084 274.852663,72.7005677 273.77605,72.4000186 C272.699437,72.0994696 271.747063,71.6336255 270.918899,71.0024725 C270.090735,70.3713195 269.414412,69.5598492 268.889908,68.5680373 C268.365404,67.5762254 268.103156,66.3890745 268.103156,65.0065488 L268.103156,65.0065488 Z M303.465574,15.7768595 L303.465574,80.1541455 L315.225441,80.1541455 L315.225441,55.7196294 C315.225441,50.9709543 315.943172,47.5597737 317.378656,45.4859852 C318.81414,43.4121967 321.132964,42.375318 324.335197,42.375318 C327.150954,42.375318 329.110913,43.3220333 330.215131,45.2154924 C331.319349,47.1089515 331.87145,49.9791519 331.87145,53.8261798 L331.87145,80.1541455 L343.631318,80.1541455 L343.631318,51.4819089 C343.631318,48.596638 343.396675,45.9668732 342.927382,43.5925356 C342.458089,41.2181981 341.64374,39.2045496 340.484311,37.5515298 C339.324882,35.89851 337.737591,34.6061684 335.722393,33.6744663 C333.707194,32.7427643 331.126122,32.2769202 327.9791,32.2769202 C325.770663,32.2769202 323.507049,32.8930365 321.188191,34.1252877 C318.869332,35.3575388 316.964584,37.3261056 315.473889,40.0310471 L315.225441,40.0310471 L315.225441,15.7768595 L303.465574,15.7768595 Z" id="dash" fill="#000000" sketch:type="MSShapeGroup"></path>
            </g>
        </g>
    </g>
</svg>